<?xml version="1.0" encoding="UTF-8"?>
<svg version="1.1" xmlns="http://www.w3.org/2000/svg" width="2000" height="409">
<path d="M0 0 C176.41456905 0 176.41456905 0 210.35546875 33.3203125 C211.22816406 34.20460937 212.10085938 35.08890625 213 36 C213.73863281 36.73992188 214.47726562 37.47984375 215.23828125 38.2421875 C238.54047556 62.94703817 240.82213698 96.01538894 240.13183594 128.11669922 C239.87687336 135.62676373 238.93602875 142.74387034 237 150 C236.81195801 150.71542969 236.62391602 151.43085938 236.43017578 152.16796875 C229.36088328 177.94810943 214.75694059 200.86130197 191.27294922 214.43603516 C189.470802 215.44629469 187.65624772 216.42920617 185.8359375 217.40625 C182.97242476 218.84757002 182.97242476 218.84757002 181 221 C181.50748779 222.03479492 182.01497559 223.06958984 182.5378418 224.13574219 C199.47371202 258.68928499 199.47371202 258.68928499 206.4375 273.875 C211.77471065 285.50874379 217.36557166 297.00802861 223 308.5 C229.24411041 321.23602824 235.39342972 333.99863954 241.3112793 346.88989258 C246.16570354 357.43952197 251.23198929 367.88304995 256.3293457 378.31689453 C256.79757751 379.27776222 256.79757751 379.27776222 257.27526855 380.25804138 C258.12496121 382.00120999 258.97707673 383.74319698 259.8293457 385.48510742 C261 388 261 388 261 389 C232.29 389 203.58 389 174 389 C170.596875 380.9975 167.19375 372.995 163.6875 364.75 C156.33731628 347.48006036 148.95767081 330.2238325 141.5 313 C134.5936927 297.04055124 127.72334579 281.06585728 120.89306641 265.07373047 C119.84408126 262.61794486 118.79311077 260.16303799 117.74121094 257.70849609 C116.27837996 254.2941347 114.82019962 250.8778252 113.36328125 247.4609375 C112.92055374 246.42987885 112.47782623 245.39882019 112.02168274 244.33651733 C111.6217662 243.39579376 111.22184967 242.45507019 110.80981445 241.48583984 C110.45852982 240.66368988 110.10724518 239.84153992 109.74531555 238.99447632 C109 237 109 237 109 235 C99.43 235 89.86 235 80 235 C80 285.82 80 336.64 80 389 C53.6 389 27.2 389 0 389 C0 260.63 0 132.26 0 0 Z M80 57 C80 97.26 80 137.52 80 179 C114.55066315 180.3371545 114.55066315 180.3371545 144 165 C158.02343313 148.50999464 159.28256304 126.7367303 158 106 C156.87424409 92.64046556 152.31264482 78.12724093 141.80859375 69.12109375 C123.17297098 55.88888055 102.14512702 57 80 57 Z " fill="#FC7A32" transform="translate(522,10)"/>
<path d="M0 0 C165.96453901 0 165.96453901 0 204 31 C205.18335938 31.93585937 205.18335938 31.93585937 206.390625 32.890625 C221.77332079 45.69160961 232.05240544 64.83258531 237 84 C237.19464844 84.72026367 237.38929688 85.44052734 237.58984375 86.18261719 C243.78003812 110.10387483 243.86378306 139.96533842 238 164 C237.70198486 165.23024902 237.70198486 165.23024902 237.39794922 166.48535156 C230.17293695 195.13644888 214.46086773 219.3209936 189 235 C154.52209556 254.52068118 120.40949746 255 81 255 C81 299.22 81 343.44 81 389 C54.27 389 27.54 389 0 389 C0 260.63 0 132.26 0 0 Z M81 58 C81 103.54 81 149.08 81 196 C114.5888173 196.9936206 114.5888173 196.9936206 143.48828125 181.7578125 C159.43109525 163.21965669 160.21886969 137.27572319 159 114 C157.6182758 97.69201835 153.20935438 81.85370064 141.09375 70.16015625 C123.72023793 56.1687828 102.36916519 58 81 58 Z " fill="#FE9F2E" transform="translate(1,10)"/>
<path d="M0 0 C1.22847656 0.29003906 2.45695312 0.58007812 3.72265625 0.87890625 C32.15245754 8.40351589 54.67251013 24.066724 75 45 C73.31662592 49.05990218 70.48867795 52.11290911 67.625 55.375 C66.53628558 56.62875626 65.44774893 57.88266691 64.359375 59.13671875 C63.5230957 60.09650635 63.5230957 60.09650635 62.66992188 61.07568359 C61.06647251 62.92340112 59.47583319 64.78115436 57.890625 66.64453125 C51.72633488 73.89010174 45.45043793 81.00726861 39 88 C35.79700736 86.58356548 33.63915798 84.85872218 31.125 82.4375 C14.14579987 67.10055037 -8.23485152 57.56213904 -31.203125 57.84765625 C-42.3606621 58.45539919 -52.79873916 62.26688724 -61 70 C-69.59142913 79.80176903 -71.91542768 92.17859682 -71.37890625 104.84765625 C-70.48066666 117.08229899 -65.34888012 127.15606388 -56.5 135.5625 C-41.32518455 147.93358765 -22.19514747 155.37962067 -4.375 163 C30.53886575 177.99363077 61.59643195 197.91077648 76.75 234.1875 C88.63327473 266.9467979 86.97374299 305.4174867 73.04150391 337.18554688 C59.49426909 366.11389154 35.06369758 385.6452948 5.72070312 396.87207031 C0.88755872 398.58812295 -3.99540535 399.89067498 -9 401 C-9.7022168 401.16081055 -10.40443359 401.32162109 -11.12792969 401.48730469 C-51.68082471 410.31106157 -97.33593956 403.22434094 -132.3046875 380.8503418 C-145.38902155 372.2317906 -156.98283571 362.11695744 -168 351 C-166.68120833 348.13005812 -165.22904698 345.91254253 -163.125 343.5625 C-162.50625 342.87027344 -161.8875 342.17804688 -161.25 341.46484375 C-158.03219502 337.93978308 -154.79735619 334.43069761 -151.55419922 330.92895508 C-144.25931168 323.05143429 -137.12183772 315.03389868 -130 307 C-126.23399688 308.30110177 -123.85450181 309.80277657 -121 312.5625 C-100.08799717 331.67710754 -74.16438614 343.03972629 -45.69140625 342.2890625 C-39.86199131 342.01108198 -34.48875211 341.00383014 -29 339 C-27.93652344 338.61714844 -27.93652344 338.61714844 -26.8515625 338.2265625 C-15.11420393 333.16975585 -8.51231361 323.42793525 -3.75244141 312.05175781 C1.55226098 297.58689122 1.39579576 278.02881102 -5 264 C-5.36222656 263.18917969 -5.72445313 262.37835938 -6.09765625 261.54296875 C-16.10911933 241.62185408 -38.2946205 232.71574938 -57.58926392 224.19081116 C-76.30554798 215.92053647 -94.54296877 207.31416245 -111 195 C-111.85464844 194.36835938 -112.70929688 193.73671875 -113.58984375 193.0859375 C-135.48214544 176.27763004 -149.80737181 154.11177113 -153.6875 126.40234375 C-157.45429381 96.15610832 -152.72742898 67.00839854 -134.8125 41.875 C-126.95378456 31.83481355 -117.93272381 22.64659914 -107 16 C-106.45601562 15.65517578 -105.91203125 15.31035156 -105.3515625 14.95507812 C-74.84486641 -4.26147607 -34.82646246 -8.25509621 0 0 Z " fill="#F7233C" transform="translate(1915,4)"/>
<path d="M0 0 C66.33 0 132.66 0 201 0 C198.57929162 19.36566704 195.83951526 38.69129621 193 58 C156.04 58 119.08 58 81 58 C81 92.32 81 126.64 81 162 C113.01 162 145.02 162 178 162 C178 181.14 178 200.28 178 220 C145.99 220 113.98 220 81 220 C81 256.3 81 292.6 81 330 C120.27 330 159.54 330 200 330 C200 349.47 200 368.94 200 389 C134 389 68 389 0 389 C0 260.63 0 132.26 0 0 Z " fill="#FD8D30" transform="translate(278,10)"/>
<path d="M0 0 C81.51 0 163.02 0 247 0 C246.32421101 8.10946791 245.5238625 16.07147624 244.37109375 24.109375 C244.16619324 25.56561279 244.16619324 25.56561279 243.95715332 27.05126953 C243.45429458 30.61803554 242.94557045 34.18397265 242.4375 37.75 C240.7359375 49.75375 240.7359375 49.75375 239 62 C213.26 62 187.52 62 161 62 C161 169.91 161 277.82 161 389 C134.6 389 108.2 389 81 389 C81 281.09 81 173.18 81 62 C54.27 62 27.54 62 0 62 C0 41.54 0 21.08 0 0 Z " fill="#F93E39" transform="translate(1360,10)"/>
<path d="M0 0 C1.785004 0.01866347 3.57005941 0.03289234 5.35513306 0.0428772 C10.04187756 0.08096666 14.72549689 0.1791035 19.41101074 0.28991699 C24.19675413 0.39242369 28.98300529 0.4379299 33.76953125 0.48828125 C43.152411 0.59536303 52.53297639 0.76591151 61.9140625 0.9765625 C60.6422981 4.90851722 59.29673282 8.34312087 57.18359375 11.8984375 C56.63574219 12.82785156 56.08789062 13.75726563 55.5234375 14.71484375 C54.93046875 15.70871094 54.3375 16.70257813 53.7265625 17.7265625 C52.45114152 19.88761883 51.17642577 22.0490915 49.90234375 24.2109375 C49.24314941 25.32662109 48.58395508 26.44230469 47.90478516 27.59179688 C44.70488956 33.03248275 41.56038019 38.50477724 38.4140625 43.9765625 C33.03569439 53.31563671 27.62146511 62.63297067 22.18359375 71.9375 C17.90184128 79.26939973 13.65195311 86.61923488 9.4140625 93.9765625 C4.60554424 102.32454677 -0.2249479 110.65902165 -5.0859375 118.9765625 C-8.70721753 125.17340807 -12.32039785 131.37467196 -15.91015625 137.58984375 C-16.55017578 138.69642334 -17.19019531 139.80300293 -17.84960938 140.94311523 C-19.12253898 143.1570112 -20.38573637 145.37653414 -21.63867188 147.60180664 C-24.48826872 152.63905325 -27.3779845 157.49548379 -30.79296875 162.171875 C-36.29878904 169.47471202 -36.29878904 169.47471202 -37.89941406 178.15966797 C-36.4432854 183.31362733 -33.61636382 187.70198052 -30.77783203 192.19824219 C-27.93175934 196.87187959 -25.53880491 201.77584828 -23.07293701 206.65753174 C-21.487867 209.77629067 -19.86522776 212.87539299 -18.24609375 215.9765625 C-14.21246286 223.71754975 -10.21974606 231.47931604 -6.23236084 239.24420166 C-0.34643823 250.70550282 5.55312692 262.15960442 11.4765625 273.6015625 C16.75842562 283.80423214 22.02889056 294.01269162 27.2890625 304.2265625 C27.81945633 305.25641266 27.81945633 305.25641266 28.36056519 306.30706787 C31.23991224 311.89801234 34.11862708 317.48928226 36.99731445 323.08056641 C39.15518773 327.27175478 41.31330663 331.46281653 43.47167969 335.65374756 C44.53084624 337.71060684 45.58964964 339.76765279 46.6484375 341.82470703 C50.15715888 348.63947223 53.67560281 355.44899964 57.2109375 362.25 C57.90416804 363.58494332 58.59736524 364.91990395 59.29052734 366.25488281 C60.58499895 368.74785241 61.88262105 371.23914493 63.18212891 373.72949219 C63.76140137 374.84485352 64.34067383 375.96021484 64.9375 377.109375 C65.44200684 378.07762207 65.94651367 379.04586914 66.46630859 380.04345703 C68.07201362 383.29656668 69.48499782 386.64207826 70.9140625 389.9765625 C41.5440625 389.9765625 12.1740625 389.9765625 -18.0859375 389.9765625 C-22.0459375 381.7265625 -26.0059375 373.4765625 -30.0859375 364.9765625 C-33.27604202 358.53950106 -36.47857542 352.11050714 -39.70996094 345.69433594 C-40.59863697 343.92549392 -41.48708765 342.15653867 -42.37533569 340.38748169 C-44.25659831 336.64140643 -46.13902768 332.89592087 -48.02233124 329.15087128 C-51.00107699 323.2265028 -53.97471596 317.29958005 -56.94732666 311.37213135 C-57.97181205 309.32941761 -58.9962986 307.28670444 -60.02078629 305.24399185 C-60.53285016 304.22298024 -61.04491403 303.20196862 -61.57249498 302.15001726 C-68.47302573 288.39176693 -75.37748446 274.63550636 -82.29296875 260.88476562 C-86.98973811 251.54561569 -91.67944217 242.20295569 -96.36101556 232.85617852 C-98.8303606 227.92685792 -101.30334667 222.99944032 -103.78508759 218.07634735 C-106.10838144 213.46748944 -108.42241672 208.85410485 -110.72932816 204.23702621 C-111.5772526 202.5441544 -112.42862178 200.85300301 -113.28364944 199.16370773 C-114.44835241 196.86134655 -115.60061385 194.55316978 -116.74993896 192.24310303 C-117.09193887 191.57434953 -117.43393878 190.90559604 -117.78630233 190.21657729 C-119.53584132 186.66412502 -120.5637896 183.9496052 -120.0859375 179.9765625 C-119.23828125 177.92553711 -119.23828125 177.92553711 -118.0234375 175.87890625 C-117.33531982 174.69893066 -117.33531982 174.69893066 -116.63330078 173.49511719 C-116.1226709 172.64336914 -115.61204102 171.79162109 -115.0859375 170.9140625 C-113.97864017 169.02244352 -112.87189834 167.13049928 -111.765625 165.23828125 C-111.16975586 164.22685059 -110.57388672 163.21541992 -109.95996094 162.17333984 C-107.00873087 157.13902425 -104.1163096 152.07120742 -101.22454834 147.00259399 C-100.20312988 145.21288213 -99.18006462 143.42411959 -98.15673828 141.63549805 C-93.12544427 132.83502492 -88.17318017 123.9919277 -83.23925781 115.13647461 C-79.23315418 107.96846761 -75.12201852 100.86804444 -70.9609375 93.7890625 C-65.96748822 85.29064917 -61.16267258 76.71116763 -56.47509766 68.04077148 C-51.72454058 59.26694387 -46.77792612 50.61262141 -41.80175781 41.96533203 C-39.85585271 38.57578019 -37.91932983 35.18096652 -35.984375 31.78515625 C-35.26922437 30.53075109 -34.55405507 29.27635658 -33.83886719 28.02197266 C-32.78878978 26.18018161 -31.73894513 24.33826088 -30.69006348 22.49578857 C-29.711106 20.77653419 -28.73056826 19.05817994 -27.75 17.33984375 C-27.18748535 16.35282471 -26.6249707 15.36580566 -26.04541016 14.34887695 C-25.39878418 13.23601318 -24.7521582 12.12314941 -24.0859375 10.9765625 C-23.62660324 9.69567749 -23.62660324 9.69567749 -23.1579895 8.38891602 C-18.74127735 -1.98248804 -9.71682513 -0.2976299 0 0 Z " fill="#FA5736" transform="translate(1152.0859375,9.0234375)"/>
<path d="M0 0 C26.73 0 53.46 0 81 0 C81 128.37 81 256.74 81 389 C54.27 389 27.54 389 0 389 C0 260.63 0 132.26 0 0 Z " fill="#F7313A" transform="translate(1635,10)"/>
<path d="M0 0 C26.73 0 53.46 0 81 0 C81 128.37 81 256.74 81 389 C54.27 389 27.54 389 0 389 C0 260.63 0 132.26 0 0 Z " fill="#FB6A34" transform="translate(810,10)"/>
<path d="M0 0 C26.4 0 52.8 0 80 0 C80 128.37 80 256.74 80 389 C53.6 389 27.2 389 0 389 C0 260.63 0 132.26 0 0 Z " fill="#FA4C37" transform="translate(1247,10)"/>
<path d="M0 0 C26.4 0 52.8 0 80 0 C80 128.37 80 256.74 80 389 C53.6 389 27.2 389 0 389 C0 260.63 0 132.26 0 0 Z " fill="#FA6135" transform="translate(950,10)"/>
</svg>
